<svg width="21" height="22" viewBox="0 0 21 22" fill="none" xmlns="http://www.w3.org/2000/svg">
<path d="M0.5 9.57015H7.16667C8.08713 9.57015 8.83333 8.82395 8.83333 7.90348V2.90348C8.83333 1.98302 8.08713 1.23682 7.16667 1.23682H2.16667C1.2462 1.23682 0.5 1.98302 0.5 2.90348V9.57015ZM0.5 9.57015V15.4035C0.5 18.6251 3.11167 21.2368 6.33333 21.2368M12.1667 9.57015H18.8333C19.7538 9.57015 20.5 8.82395 20.5 7.90348V2.90348C20.5 1.98302 19.7538 1.23682 18.8333 1.23682H13.8333C12.9129 1.23682 12.1667 1.98302 12.1667 2.90348V9.57015ZM12.1667 9.57015V15.4035C12.1667 18.6251 14.7783 21.2368 18 21.2368" stroke="#EFA286"/>
</svg>
