<svg width="23" height="24" viewBox="0 0 23 24" fill="none" xmlns="http://www.w3.org/2000/svg">
<path d="M22.5 14.0702L15.1667 14.0702C14.1542 14.0702 13.3333 14.891 13.3333 15.9035L13.3333 21.4035C13.3333 22.416 14.1542 23.2368 15.1667 23.2368L20.6667 23.2368C21.6792 23.2368 22.5 22.416 22.5 21.4035L22.5 14.0702ZM22.5 14.0702L22.5 7.65348C22.5 4.10965 19.6272 1.23682 16.0833 1.23682M9.66667 14.0701L2.33333 14.0701C1.32078 14.0701 0.499999 14.891 0.499999 15.9035L0.499998 21.4035C0.499998 22.416 1.32078 23.2368 2.33333 23.2368L7.83333 23.2368C8.84585 23.2368 9.66667 22.416 9.66667 21.4035L9.66667 14.0701ZM9.66667 14.0701L9.66667 7.65348C9.66667 4.10965 6.79383 1.23682 3.25 1.23682" stroke="#EFA286"/>
</svg>
