<svg width="128" height="168" viewBox="0 0 128 168" fill="none" xmlns="http://www.w3.org/2000/svg">
<path fill-rule="evenodd" clip-rule="evenodd" d="M73.2201 27.3401L115.487 9.18944C115.786 9.05965 115.977 8.7202 115.922 8.37076C115.414 5.48543 116.839 2.5302 119.407 1.422C122.302 0.183997 125.577 1.76145 126.711 4.95628C127.855 8.15112 126.412 11.7553 123.517 13.0033C121.058 14.0616 118.345 13.0831 116.875 10.8368C116.685 10.5472 116.358 10.4175 116.059 10.5472L73.7101 28.7378C73.3562 28.8876 72.966 28.6979 72.8299 28.3085C72.6938 27.9192 72.8662 27.4898 73.2201 27.3401Z" fill="#4B7C87" fill-opacity="0.4" stroke="#4B7C87" stroke-opacity="0.4" stroke-miterlimit="10"/>
<path fill-rule="evenodd" clip-rule="evenodd" d="M23.9754 23.6061C23.9754 30.5848 18.8305 36.2457 12.4877 36.2457C6.14497 36.2457 0.999998 30.5848 0.999998 23.6061C0.999998 16.6274 6.1359 10.9666 12.4877 10.9666C18.8395 10.9666 23.9754 16.6274 23.9754 23.6061Z" fill="#4B7C87" fill-opacity="0.4" stroke="#4B7C87" stroke-opacity="0.4" stroke-miterlimit="10"/>
<path fill-rule="evenodd" clip-rule="evenodd" d="M21.0354 133.828L17.2425 100.731L17.1245 100.652L17.1427 99.8927L17.5238 85.4761L6.86182 54.2865C6.06331 51.9403 5.97256 49.3644 6.62589 46.9583C7.81459 42.5355 11.2809 39.3307 15.4368 38.7815L23.6488 37.7133L67.1859 25.8824C68.0389 25.6528 68.919 26.122 69.2911 27.0006C69.7266 28.0389 69.2911 29.2569 68.3383 29.6962L29.6285 47.5574L29.9552 49.2646L68.7103 31.1539C69.4635 30.8044 70.3255 31.1738 70.6613 31.9825C70.9788 32.7413 70.7338 33.6299 70.0896 34.0792L32.0694 60.2868L36.9513 85.7656L58.9467 110.196C61.2424 112.752 62.8667 115.947 63.638 119.441L72.4488 159.496C72.8481 161.313 71.8227 163.15 70.1713 163.57C68.7103 163.949 67.2131 163.101 66.6415 161.573L52.6584 124.173L33.975 111.803L33.2037 129.395C33.0131 133.758 31.5795 137.941 29.1113 141.366L11.5712 165.646C10.7183 166.825 9.28458 167.304 7.98699 166.835C5.99071 166.116 5.11053 163.55 6.17219 161.563L21.0354 133.828Z" fill="#4B7C87" fill-opacity="0.4" stroke="#4B7C87" stroke-opacity="0.4" stroke-miterlimit="10"/>
</svg>
