<svg width="194" height="138" viewBox="0 0 194 138" fill="none" xmlns="http://www.w3.org/2000/svg">
<path fill-rule="evenodd" clip-rule="evenodd" d="M27.8849 0.962891C12.487 0.962891 4.95911e-05 17.0059 4.95911e-05 36.7889C4.95911e-05 56.572 12.487 72.615 27.8849 72.615C43.2829 72.615 55.7776 56.572 55.7776 36.7889C55.7776 17.0059 43.2907 0.962891 27.8849 0.962891ZM27.8849 69.5067C13.6889 69.5067 2.18526 54.727 2.18526 36.4781C2.18526 18.2292 13.6889 3.45958 27.8849 3.45958C42.081 3.45958 53.5924 18.2492 53.5924 36.4881C53.5924 54.727 42.081 69.5167 27.8849 69.5167V69.5067Z" fill="#4B7C87" fill-opacity="0.4"/>
<path fill-rule="evenodd" clip-rule="evenodd" d="M127.835 12.3234L147.361 3.99102C148.048 3.70025 148.797 4.04116 149.188 4.82326C149.671 5.80589 149.414 7.09936 148.626 7.67089L130.996 20.2947L117.853 26.0401L135.304 45.0812C137.871 47.8787 141.383 48.7611 144.575 47.4074L190.199 28.0555C191.284 27.5943 192.463 28.226 192.97 29.5395C193.532 30.9934 193.071 32.7682 191.94 33.4901L141.516 65.6363L136.701 135.133C136.607 136.466 135.741 137.489 134.695 137.489C133.634 137.489 132.752 136.426 132.681 135.062L129.177 64.1523L97.3746 41.2309L85.5199 46.6755C84.0292 47.3573 82.4684 47.7584 80.8841 47.8687L60.3509 49.2223C59.3832 49.2825 58.5403 48.37 58.431 47.1267C58.3296 45.9034 58.9773 44.7804 59.9138 44.5498L82.0079 39.2155L104.055 18.8208C106.373 16.675 109.066 15.3214 111.898 14.8602L127.851 12.2933L127.835 12.3234Z" fill="#4B7C87" fill-opacity="0.4"/>
<path fill-rule="evenodd" clip-rule="evenodd" d="M100.473 11.4909C100.473 17.5572 96.641 22.4804 91.9194 22.4804C87.1977 22.4804 83.3658 17.5572 83.3658 11.4909C83.3658 5.42466 87.1977 0.501465 91.9194 0.501465C96.641 0.501465 100.473 5.42466 100.473 11.4909Z" fill="#4B7C87" fill-opacity="0.4"/>
</svg>
