<svg width="175" height="158" viewBox="0 0 175 158" fill="none" xmlns="http://www.w3.org/2000/svg">
<path fill-rule="evenodd" clip-rule="evenodd" d="M116.001 11.5768C116.001 17.6898 122.866 22.6541 131.351 22.6541C139.836 22.6541 146.701 17.6998 146.701 11.5768C146.701 5.45383 139.822 0.499512 131.351 0.499512C122.88 0.499512 116.001 5.45383 116.001 11.5768Z" fill="#4B7C87" fill-opacity="0.4" stroke="#4B7C87" stroke-opacity="0.4" stroke-miterlimit="10"/>
<path fill-rule="evenodd" clip-rule="evenodd" d="M146.978 47.6555L158.632 55.866L143.753 62.1189C141.94 62.878 141.234 64.5061 142.12 65.8846C142.964 67.203 145.026 67.8723 146.964 67.4528L168.294 62.8181C172.792 61.8392 174.951 58.1534 172.792 55.1469L158.66 35.4694C157.345 33.6315 155.38 32.0733 152.985 30.9346L147.698 28.4375C145.109 27.2189 142.106 26.5397 139.019 26.4697L124.624 26.1801L119.475 25.7006L60.6354 5.39391C59.1959 4.89448 57.4657 5.12422 56.3584 5.96326C54.7666 7.17187 55.0711 9.11964 56.9951 10.0386L82.048 21.9749L109.523 35.0599L98.9345 58.7827L83.3214 52.1403L7.73361 20.9461C5.78197 20.137 3.30437 20.4966 1.93407 21.7851C0.466873 23.1635 0.757538 25.1313 2.59845 26.25L92.5397 81.0672L111.461 109.764L133.801 154.313C134.438 155.582 136.071 156.441 137.926 156.511C140.86 156.611 143.172 154.723 142.687 152.625L125.759 80.6376L146.978 47.6555Z" fill="#4B7C87" fill-opacity="0.4" stroke="#4B7C87" stroke-opacity="0.4" stroke-miterlimit="10"/>
</svg>
