<svg width="27" height="27" viewBox="0 0 27 27" fill="none" xmlns="http://www.w3.org/2000/svg">
<path fill-rule="evenodd" clip-rule="evenodd" d="M26.625 13.7368C26.625 20.9856 20.7488 26.8618 13.5 26.8618C6.25127 26.8618 0.375 20.9856 0.375 13.7368C0.375 6.48808 6.25127 0.611816 13.5 0.611816C20.7488 0.611816 26.625 6.48808 26.625 13.7368ZM14.5938 6.30611C14.5938 5.70206 14.104 5.21236 13.5 5.21236C12.896 5.21236 12.4062 5.70206 12.4062 6.30611V14.2157V14.7896L12.8783 15.1157L18.2235 18.8079C18.7205 19.1512 19.4017 19.0265 19.7452 18.5295C20.0885 18.0325 19.9638 17.3513 19.4668 17.008L14.5938 13.6419V6.30611Z" fill="#2F4C78"/>
</svg>
