<svg width="80" height="80" viewBox="0 0 80 80" fill="none" xmlns="http://www.w3.org/2000/svg">
<rect width="80" height="80" rx="40" fill="url(#paint0_linear_73_108)"/>
<path d="M55.1969 48C55.6969 48 56.1969 48.5 56.1969 49V51C56.1969 51.5625 55.6969 52 55.1969 52H26.1969C25.0719 52 24.1969 51.125 24.1969 50V29C24.1969 28.5 24.6344 28 25.1969 28H27.1969C27.6969 28 28.1969 28.5 28.1969 29V48H55.1969ZM53.1969 30C53.6969 30 54.1969 30.5 54.1344 31V38.4375C54.1344 39.75 52.5719 40.4375 51.6344 39.5L49.5719 37.4375L43.5719 43.4375C42.8219 44.25 41.5094 44.25 40.7594 43.4375L36.1969 38.875L33.2594 41.75C32.8844 42.125 32.2594 42.125 31.8844 41.75L30.4469 40.3125C30.0719 39.9375 30.0719 39.3125 30.4469 38.9375L34.7594 34.625C35.5094 33.8125 36.8219 33.8125 37.5719 34.625L42.1969 39.1875L46.7594 34.625L44.6969 32.5625C43.7594 31.625 44.4469 30 45.7594 30H53.1969Z" fill="white"/>
<defs>
<linearGradient id="paint0_linear_73_108" x1="0" y1="0" x2="80" y2="80" gradientUnits="userSpaceOnUse">
<stop stop-color="#0056A6"/>
<stop offset="1" stop-color="#4A8FD4"/>
</linearGradient>
</defs>
</svg>
