<svg width="80" height="80" viewBox="0 0 80 80" fill="none" xmlns="http://www.w3.org/2000/svg">
<rect width="80" height="80" rx="40" fill="url(#paint0_linear_76_249)"/>
<path fill-rule="evenodd" clip-rule="evenodd" d="M26.6971 46.5103C27.9562 46.5103 29.0958 47.0147 29.9206 47.8303C30.2393 48.1455 30.5116 48.5067 30.7241 48.9046V27.9822C30.7241 26.8829 30.2739 25.886 29.5447 25.1663C28.8155 24.4453 27.8087 24 26.6971 24C25.5854 24 24.5773 24.4452 23.8495 25.1663C23.1203 25.8873 22.67 26.8829 22.67 27.9822V48.9046C22.8839 48.508 23.1548 48.1455 23.4736 47.8303C24.2984 47.0147 25.4379 46.5103 26.6971 46.5103ZM31.2553 28.2451V51.0178C31.2553 51.1623 31.1357 51.2805 30.9896 51.2805C30.8435 51.2805 30.724 51.1623 30.724 51.0178C30.724 49.9185 30.2738 48.9229 29.5446 48.2019C28.8154 47.4808 27.8086 47.0356 26.697 47.0356C25.5853 47.0356 24.5772 47.4808 23.8494 48.2019C23.1202 48.9229 22.6699 49.9185 22.6699 51.0178C22.6699 52.1171 23.1202 53.114 23.8494 53.8337C24.5759 54.5521 25.5786 54.9973 26.6877 55H54.5116C55.1053 55 55.6445 54.7596 56.0364 54.3735C56.4282 53.9861 56.6699 53.4528 56.6699 52.8657V30.3792C56.6699 29.7921 56.4269 29.2589 56.035 28.8714C55.6432 28.484 55.104 28.2436 54.5103 28.2436H49.2268V30.8664C49.2268 31.0109 49.1073 31.1291 48.9612 31.1291H38.5656C38.4195 31.1291 38.3 31.0109 38.3 30.8664V28.2436H31.2539L31.2553 28.2451ZM48.6969 28.2451H38.8325V30.6053H48.6969V28.2451ZM49.033 49.4997C49.1804 49.4997 49.2986 49.3841 49.2986 49.237V41.102H51.344C51.4529 41.102 51.5498 41.0364 51.5884 40.9365C51.6282 40.8341 51.6043 40.7211 51.5233 40.6463L43.8519 33.6158C43.751 33.5225 43.5929 33.5225 43.492 33.6158L35.8206 40.6463C35.7396 40.7198 35.7143 40.8328 35.7542 40.9339C35.794 41.035 35.8923 41.1007 36.0012 41.1007H38.0413V49.2357C38.0413 49.3802 38.1595 49.4984 38.3069 49.4984H49.032L49.033 49.4997ZM45.0446 48.9757H42.2993V45.3007H45.0446V48.9757ZM41.7693 48.9757H38.5737V41.1033H48.7687V48.9757H45.5758V45.0395C45.5758 44.895 45.4576 44.7768 45.3101 44.7768H42.0349C41.8888 44.7768 41.7692 44.8937 41.7692 45.0395L41.7693 48.9757ZM36.677 40.5777L43.6737 34.1672L50.6678 40.5777H36.677Z" fill="white"/>
<defs>
<linearGradient id="paint0_linear_76_249" x1="0" y1="0" x2="80" y2="80" gradientUnits="userSpaceOnUse">
<stop stop-color="#0056A6"/>
<stop offset="1" stop-color="#4A8FD4"/>
</linearGradient>
</defs>
</svg>
