<svg width="80" height="80" viewBox="0 0 80 80" fill="none" xmlns="http://www.w3.org/2000/svg">
<rect width="80" height="80" rx="40" fill="url(#paint0_linear_73_143)"/>
<path d="M55.5094 48.75C56.3844 49.6875 56.3844 51.125 55.5094 52.0625L52.1969 55.375C51.2594 56.25 49.8219 56.25 48.8844 55.375L41.5719 48C40.1344 46.5625 39.8844 44.4375 40.6969 42.6875L34.0719 36H30.1969L24.1969 28L28.1969 24L36.1969 30V33.9375L42.8219 40.5625C44.5719 39.6875 46.6969 40 48.1969 41.4375L55.5094 48.75ZM44.8844 38.0625C44.3844 38.0625 43.8844 38.125 43.3844 38.25L38.1969 33.125C38.1969 30.8125 39.0094 28.4375 40.8219 26.6875C43.1344 24.375 46.3844 23.5625 49.3219 24.3125C49.8844 24.4375 50.1344 25.125 49.6969 25.5625L45.0719 30.1875L45.7594 34.4375L50.0094 35.1875L54.6344 30.5C55.0719 30.125 55.7594 30.3125 55.8844 30.875C56.6344 33.8125 55.8219 37.0625 53.5094 39.375C52.6969 40.1875 51.7594 40.8125 50.8219 41.25L49.5719 40C48.3219 38.75 46.6969 38.0625 44.8844 38.0625ZM38.3844 43.1875C38.0719 44.5625 38.2594 45.875 38.6969 47.125L31.0094 54.875C29.4469 56.4375 26.8844 56.4375 25.3219 54.875C23.7594 53.3125 23.7594 50.75 25.3219 49.1875L34.8844 39.6875L38.3844 43.1875ZM28.1969 53.5C29.0094 53.5 29.6969 52.875 29.6969 52C29.6969 51.1875 29.0094 50.5 28.1969 50.5C27.3219 50.5 26.6969 51.1875 26.6969 52C26.6969 52.875 27.3219 53.5 28.1969 53.5Z" fill="white"/>
<defs>
<linearGradient id="paint0_linear_73_143" x1="0" y1="0" x2="80" y2="80" gradientUnits="userSpaceOnUse">
<stop stop-color="#0056A6"/>
<stop offset="1" stop-color="#4A8FD4"/>
</linearGradient>
</defs>
</svg>
