<svg width="80" height="80" viewBox="0 0 80 80" fill="none" xmlns="http://www.w3.org/2000/svg">
<rect width="80" height="80" rx="40" fill="url(#paint0_linear_73_123)"/>
<path d="M51.6609 46C51.9109 46 52.1609 46.25 52.1609 46.5V49.5C52.1609 49.8125 51.9109 50 51.6609 50H28.6609C28.3484 50 28.1609 49.8125 28.1609 49.5V46.5C28.1609 46.25 28.4109 46 28.6609 46H51.6609ZM51.6609 52C51.9109 52 52.1609 52.25 52.1609 52.5V55.5C52.1609 55.8125 51.9109 56 51.6609 56H28.6609C28.3484 56 28.1609 55.8125 28.1609 55.5V52.5C28.1609 52.25 28.3484 52 28.6609 52H51.6609ZM51.6609 40C51.9109 40 52.1609 40.25 52.1609 40.5V43.5C52.1609 43.8125 51.9109 44 51.6609 44H28.6609C28.4109 44 28.1609 43.8125 28.1609 43.5V40.5C28.1609 40.25 28.4109 40 28.6609 40H51.6609ZM58.2859 31.3125C59.4109 31.8125 60.1609 32.875 60.1609 34.125V55.5C60.1609 55.8125 59.9109 56 59.6609 56H54.6609C54.3484 56 54.1609 55.8125 54.1609 55.5V40C54.1609 38.9375 53.2234 38 52.0984 38H28.1609C27.0359 38 26.1609 38.9375 26.1609 40V55.5C26.1609 55.8125 25.9109 56 25.6609 56H20.6609C20.3484 56 20.1609 55.8125 20.1609 55.5V34.125C20.1609 32.875 20.8484 31.8125 21.9734 31.3125L38.9734 24.25C39.3484 24.125 39.7234 24.0625 40.0984 24.0625C40.5359 24.0625 40.9109 24.125 41.2859 24.25L58.2859 31.3125Z" fill="white"/>
<defs>
<linearGradient id="paint0_linear_73_123" x1="0" y1="0" x2="80" y2="80" gradientUnits="userSpaceOnUse">
<stop stop-color="#0056A6"/>
<stop offset="1" stop-color="#4A8FD4"/>
</linearGradient>
</defs>
</svg>
