<svg width="80" height="80" viewBox="0 0 80 80" fill="none" xmlns="http://www.w3.org/2000/svg">
<rect width="80" height="80" rx="40" fill="url(#paint0_linear_73_138)"/>
<path d="M26.1609 38C23.9109 38 22.1609 36.25 22.1609 34C22.1609 31.8125 23.9109 30 26.1609 30C28.3484 30 30.1609 31.8125 30.1609 34C30.1609 36.25 28.3484 38 26.1609 38ZM54.1609 38C51.9109 38 50.1609 36.25 50.1609 34C50.1609 31.8125 51.9109 30 54.1609 30C56.3484 30 58.1609 31.8125 58.1609 34C58.1609 36.25 56.3484 38 54.1609 38ZM56.1609 40C58.3484 40 60.1609 41.8125 60.1609 44V46C60.1609 47.125 59.2234 48 58.1609 48H54.0359C53.5984 45.0625 51.8484 42.5625 49.2859 41.1875C50.0359 40.5 51.0359 40 52.1609 40H56.1609ZM40.1609 40C36.2859 40 33.1609 36.875 33.1609 33C33.1609 29.1875 36.2859 26 40.1609 26C43.9734 26 47.1609 29.1875 47.1609 33C47.1609 36.875 43.9734 40 40.1609 40ZM44.9109 42C48.9109 42 52.1609 45.25 52.1609 49.25V51C52.1609 52.6875 50.7859 54 49.1609 54H31.1609C29.4734 54 28.1609 52.6875 28.1609 51V49.25C28.1609 45.25 31.3484 42 35.3484 42H35.8484C37.1609 42.625 38.5984 43 40.1609 43C41.6609 43 43.0984 42.625 44.4109 42H44.9109ZM30.9734 41.1875C28.4109 42.5625 26.6609 45.0625 26.2234 48H22.1609C21.0359 48 20.1609 47.125 20.1609 46V44C20.1609 41.8125 21.9109 40 24.1609 40H28.1609C29.2234 40 30.2234 40.5 30.9734 41.1875Z" fill="white"/>
<defs>
<linearGradient id="paint0_linear_73_138" x1="0" y1="0" x2="80" y2="80" gradientUnits="userSpaceOnUse">
<stop stop-color="#0056A6"/>
<stop offset="1" stop-color="#4A8FD4"/>
</linearGradient>
</defs>
</svg>
