<svg width="80" height="80" viewBox="0 0 80 80" fill="none" xmlns="http://www.w3.org/2000/svg">
<rect width="80" height="80" rx="40" fill="url(#paint0_linear_73_103)"/>
<path d="M53.4219 54C53.7969 54 54.1719 54.375 54.1719 54.75V56H26.1719V54.75C26.1719 54.375 26.4844 54 26.9219 54H28.1719V25.5C28.1719 24.6875 28.7969 24 29.6719 24H50.6719C51.4844 24 52.1719 24.6875 52.1719 25.5V54H53.4219ZM34.1719 28.75V31.25C34.1719 31.6875 34.4844 32 34.9219 32H37.4219C37.7969 32 38.1719 31.6875 38.1719 31.25V28.75C38.1719 28.375 37.7969 28 37.4219 28H34.9219C34.4844 28 34.1719 28.375 34.1719 28.75ZM34.1719 34.75V37.25C34.1719 37.6875 34.4844 38 34.9219 38H37.4219C37.7969 38 38.1719 37.6875 38.1719 37.25V34.75C38.1719 34.375 37.7969 34 37.4219 34H34.9219C34.4844 34 34.1719 34.375 34.1719 34.75ZM37.4219 44C37.7969 44 38.1719 43.6875 38.1719 43.25V40.75C38.1719 40.375 37.7969 40 37.4219 40H34.9219C34.4844 40 34.1719 40.375 34.1719 40.75V43.25C34.1719 43.6875 34.4844 44 34.9219 44H37.4219ZM42.1719 54V48.75C42.1719 48.375 41.7969 48 41.4219 48H38.9219C38.4844 48 38.1719 48.375 38.1719 48.75V54H42.1719ZM46.1719 43.25V40.75C46.1719 40.375 45.7969 40 45.4219 40H42.9219C42.4844 40 42.1719 40.375 42.1719 40.75V43.25C42.1719 43.6875 42.4844 44 42.9219 44H45.4219C45.7969 44 46.1719 43.6875 46.1719 43.25ZM46.1719 37.25V34.75C46.1719 34.375 45.7969 34 45.4219 34H42.9219C42.4844 34 42.1719 34.375 42.1719 34.75V37.25C42.1719 37.6875 42.4844 38 42.9219 38H45.4219C45.7969 38 46.1719 37.6875 46.1719 37.25ZM46.1719 31.25V28.75C46.1719 28.375 45.7969 28 45.4219 28H42.9219C42.4844 28 42.1719 28.375 42.1719 28.75V31.25C42.1719 31.6875 42.4844 32 42.9219 32H45.4219C45.7969 32 46.1719 31.6875 46.1719 31.25Z" fill="white"/>
<defs>
<linearGradient id="paint0_linear_73_103" x1="0" y1="0" x2="80" y2="80" gradientUnits="userSpaceOnUse">
<stop stop-color="#0056A6"/>
<stop offset="1" stop-color="#4A8FD4"/>
</linearGradient>
</defs>
</svg>
