<svg width="80" height="80" viewBox="0 0 80 80" fill="none" xmlns="http://www.w3.org/2000/svg">
<rect width="80" height="80" rx="40" fill="url(#paint0_linear_76_270)"/>
<path d="M41.7242 39.7341H38.0811V41.847H41.7242V39.7341Z" fill="white"/>
<path d="M41.7242 42.5759H38.0811V44.6888H41.7242V42.5759Z" fill="white"/>
<path d="M34.8732 27.4747C34.8732 27.2735 35.0364 27.1104 35.2376 27.1104H44.5669C44.7681 27.1104 44.9312 27.2735 44.9312 27.4747V29.9788H45.6546V26.3423H34.1499V29.9788H34.8732V27.4747Z" fill="white"/>
<path d="M52.3911 41.8472L56.1073 30.7075H23.6978L27.414 41.8472H37.3523V39.37C37.3523 39.1688 37.5155 39.0057 37.7167 39.0057H42.0884C42.2896 39.0057 42.4527 39.1688 42.4527 39.37V41.8472H52.3911Z" fill="white"/>
<path d="M52.6533 42.5757H42.4525V45.0528C42.4525 45.254 42.2894 45.4172 42.0882 45.4172H37.7164C37.5152 45.4172 37.3521 45.254 37.3521 45.0528V42.5757H27.1513C26.9945 42.5757 26.8553 42.4754 26.8057 42.3267L23.5562 32.5862V55.5013H56.2484V32.5862L52.9988 42.3267C52.9493 42.4753 52.81 42.5757 52.6533 42.5757Z" fill="white"/>
<path d="M21.4278 28.0518L28.5152 27.5072L26.1341 20.8095L24.7695 22.9093C24.6632 23.073 24.4466 23.1238 24.2786 23.0243C20.47 20.772 18.3629 17.481 17.9918 13.22C16.917 18.3931 18.5591 23.0289 22.5409 25.6775C22.7071 25.7881 22.7534 26.012 22.6445 26.1794L21.4278 28.0518Z" fill="white"/>
<path d="M57.2639 25.6775C61.2457 23.0289 62.8879 18.3931 61.813 13.22C61.442 17.481 59.3347 20.772 55.5262 23.0243C55.3582 23.1238 55.1416 23.073 55.0352 22.9093L53.6707 20.8095L51.2896 27.5072L58.3769 28.0518L57.1603 26.1794C57.0515 26.012 57.0977 25.7881 57.2639 25.6775Z" fill="white"/>
<defs>
<linearGradient id="paint0_linear_76_270" x1="0" y1="0" x2="80" y2="80" gradientUnits="userSpaceOnUse">
<stop stop-color="#0056A6"/>
<stop offset="1" stop-color="#4A8FD4"/>
</linearGradient>
</defs>
</svg>
