<svg width="80" height="80" viewBox="0 0 80 80" fill="none" xmlns="http://www.w3.org/2000/svg">
<rect width="80" height="80" rx="40" fill="url(#paint0_linear_73_118)"/>
<path d="M53.3219 29.25C54.4469 29.75 55.1969 30.8125 55.1969 32C55.1969 45.875 46.6969 53.5625 41.3219 55.8125C40.5719 56.125 39.7594 56.125 39.0094 55.8125C32.3219 53 25.1969 44.4375 25.1969 32C25.1969 30.8125 25.8844 29.75 27.0094 29.25L39.0094 24.25C39.3844 24.125 39.7594 24.0625 40.1969 24.0625C40.5719 24.0625 40.9469 24.125 41.3219 24.25L53.3219 29.25ZM40.1969 51.9375C46.0094 49 50.9469 42.125 51.1344 32.6875L40.1969 28.125V51.9375Z" fill="white"/>
<defs>
<linearGradient id="paint0_linear_73_118" x1="0" y1="0" x2="80" y2="80" gradientUnits="userSpaceOnUse">
<stop stop-color="#0056A6"/>
<stop offset="1" stop-color="#4A8FD4"/>
</linearGradient>
</defs>
</svg>
