<svg width="80" height="80" viewBox="0 0 80 80" fill="none" xmlns="http://www.w3.org/2000/svg">
<rect width="80" height="80" rx="40" fill="url(#paint0_linear_73_113)"/>
<path d="M40.1844 40C35.7469 40 32.1844 36.4375 32.1844 32C32.1844 27.625 35.7469 24 40.1844 24C44.5594 24 48.1844 27.625 48.1844 32C48.1844 36.4375 44.5594 40 40.1844 40ZM46.1219 42.0625C50.6219 42.25 54.1844 45.9375 54.1844 50.4375V53C54.1844 54.6875 52.8094 56 51.1844 56H29.1844C27.4969 56 26.1844 54.6875 26.1844 53V50.4375C26.1844 45.9375 29.6844 42.25 34.1844 42.0625L37.1844 54L39.1844 45.5L37.1844 42H43.1844L41.1844 45.5L43.1844 54L46.1219 42.0625Z" fill="white"/>
<defs>
<linearGradient id="paint0_linear_73_113" x1="0" y1="0" x2="80" y2="80" gradientUnits="userSpaceOnUse">
<stop stop-color="#0056A6"/>
<stop offset="1" stop-color="#4A8FD4"/>
</linearGradient>
</defs>
</svg>
