<svg width="80" height="80" viewBox="0 0 80 80" fill="none" xmlns="http://www.w3.org/2000/svg">
<rect width="80" height="80" rx="40" fill="url(#paint0_linear_73_128)"/>
<path d="M51.7344 30.5625C51.9844 30.875 52.1719 31.25 52.1719 31.625V32H44.1719V24H44.5469C44.9219 24 45.2969 24.1875 45.6094 24.4375L51.7344 30.5625ZM42.1719 32.5C42.1719 33.375 42.7969 34 43.6719 34H52.1719V54.5C52.1719 55.375 51.4844 56 50.6719 56H29.6719C28.7969 56 28.1719 55.375 28.1719 54.5V25.5C28.1719 24.6875 28.7969 24 29.6719 24H42.1719V32.5ZM32.1719 28.5V29.5C32.1719 29.8125 32.3594 30 32.6719 30H37.6719C37.9219 30 38.1719 29.8125 38.1719 29.5V28.5C38.1719 28.25 37.9219 28 37.6719 28H32.6719C32.3594 28 32.1719 28.25 32.1719 28.5ZM32.1719 33.5C32.1719 33.8125 32.3594 34 32.6719 34H37.6719C37.9219 34 38.1719 33.8125 38.1719 33.5V32.5C38.1719 32.25 37.9219 32 37.6719 32H32.6719C32.3594 32 32.1719 32.25 32.1719 32.5V33.5ZM41.1719 50C42.6094 50 43.7969 48.75 43.7969 47.1875C43.7969 45.9375 42.9844 44.8125 41.8594 44.5L39.0469 43.625C38.6719 43.5625 38.4844 43.25 38.4844 42.875C38.4844 42.375 38.7969 42 39.2344 42H40.9844C41.2344 42 41.5469 42.125 41.7969 42.25C41.9844 42.375 42.2344 42.375 42.4219 42.1875L43.1094 41.5C43.3594 41.3125 43.3594 40.9375 43.1094 40.75C42.5469 40.3125 41.8594 40.0625 41.1094 40.0625V38.5C41.1094 38.25 40.9219 38 40.6094 38H39.6094C39.3594 38 39.1094 38.25 39.1094 38.5V40.0625C37.6719 40.0625 36.4844 41.3125 36.4844 42.875C36.4844 44.125 37.2969 45.1875 38.4219 45.5625L41.2344 46.4375C41.6094 46.5 41.7969 46.8125 41.7969 47.1875C41.7969 47.6875 41.4844 48 41.0469 48H39.2969C39.0469 48 38.7344 47.9375 38.4844 47.8125C38.2969 47.6875 38.0469 47.6875 37.8594 47.875L37.1719 48.5625C36.9219 48.75 36.9219 49.125 37.1719 49.3125C37.7344 49.75 38.4219 50 39.1719 50V51.5C39.1719 51.8125 39.3594 52 39.6719 52H40.6719C40.9219 52 41.1719 51.8125 41.1719 51.5V50Z" fill="white"/>
<defs>
<linearGradient id="paint0_linear_73_128" x1="0" y1="0" x2="80" y2="80" gradientUnits="userSpaceOnUse">
<stop stop-color="#0056A6"/>
<stop offset="1" stop-color="#4A8FD4"/>
</linearGradient>
</defs>
</svg>
