<svg width="80" height="80" viewBox="0 0 80 80" fill="none" xmlns="http://www.w3.org/2000/svg">
<rect width="80" height="80" rx="40" fill="url(#paint0_linear_73_133)"/>
<path d="M50.5469 24.25C51.2344 23.75 52.1719 24.1875 52.1719 25V55C52.1719 55.875 51.1719 56.3125 50.5469 55.8125L48.1719 53L44.7344 55.8125C44.5469 55.9375 44.3594 56.0625 44.1094 56.0625C43.9219 56.0625 43.7344 55.9375 43.5469 55.8125L40.1719 53L36.7344 55.8125C36.5469 55.9375 36.3594 56.0625 36.1094 56.0625C35.9219 56.0625 35.7344 55.9375 35.5469 55.8125L32.1719 53L29.7344 55.8125C29.1094 56.3125 28.1719 55.875 28.1719 55V25C28.1719 24.1875 29.1094 23.75 29.7344 24.25L32.1719 27L35.5469 24.25C35.7344 24.125 35.9219 24 36.1719 24C36.3594 24 36.5469 24.125 36.7344 24.25L40.1719 27L43.5469 24.25C43.7344 24.125 43.9219 24 44.1719 24C44.3594 24 44.5469 24.125 44.7344 24.25L48.1719 27L50.5469 24.25ZM48.1719 46.5V45.5C48.1719 45.25 47.9219 45 47.6719 45H32.6719C32.3594 45 32.1719 45.25 32.1719 45.5V46.5C32.1719 46.8125 32.3594 47 32.6719 47H47.6719C47.9219 47 48.1719 46.8125 48.1719 46.5ZM48.1719 40.5V39.5C48.1719 39.25 47.9219 39 47.6719 39H32.6719C32.3594 39 32.1719 39.25 32.1719 39.5V40.5C32.1719 40.8125 32.3594 41 32.6719 41H47.6719C47.9219 41 48.1719 40.8125 48.1719 40.5ZM48.1719 34.5V33.5C48.1719 33.25 47.9219 33 47.6719 33H32.6719C32.3594 33 32.1719 33.25 32.1719 33.5V34.5C32.1719 34.8125 32.3594 35 32.6719 35H47.6719C47.9219 35 48.1719 34.8125 48.1719 34.5Z" fill="white"/>
<defs>
<linearGradient id="paint0_linear_73_133" x1="0" y1="0" x2="80" y2="80" gradientUnits="userSpaceOnUse">
<stop stop-color="#0056A6"/>
<stop offset="1" stop-color="#4A8FD4"/>
</linearGradient>
</defs>
</svg>
