<svg width="28" height="22" viewBox="0 0 28 22" fill="none" xmlns="http://www.w3.org/2000/svg">
<path d="M28 17.8796C28 18.4984 27.8273 19.0721 27.5508 19.5768L18.71 9.60457L27.4549 1.89111C27.7951 2.43536 28 3.07468 28 3.76554V17.8796ZM14 11.4152L26.1683 0.681412C25.6689 0.405823 25.1066 0.236816 24.5001 0.236816H3.49998C2.89267 0.236816 2.3302 0.405823 1.83289 0.681412L14 11.4152ZM17.3924 10.7659L14.5758 13.252C14.4111 13.3967 14.2059 13.469 14 13.469C13.794 13.469 13.5889 13.3967 13.4241 13.252L10.6069 10.7657L1.65428 20.8655C2.1909 21.2049 2.81979 21.4082 3.49992 21.4082H24.5001C25.1801 21.4082 25.8093 21.2049 26.3457 20.8655L17.3924 10.7659ZM0.545214 1.89105C0.20509 2.4353 0 3.07462 0 3.76554V17.8796C0 18.4985 0.171851 19.0721 0.449479 19.5769L9.28919 9.60288L0.545214 1.89105Z" fill="#2F4C78"/>
</svg>
