<svg width="25" height="27" viewBox="0 0 25 27" fill="none" xmlns="http://www.w3.org/2000/svg">
<path d="M24.4451 21.4602L24.3229 21.0702C24.0334 20.1592 23.0846 19.2091 22.2129 18.9588L18.9868 18.0256C18.112 17.7736 16.864 18.1125 16.2239 18.7902L15.0563 20.0264C10.8131 18.8124 7.48578 15.2892 6.34074 10.7973L7.50837 9.56095C8.14846 8.88321 8.46845 7.56358 8.23044 6.63726L7.35074 3.21973C7.11273 2.2951 6.21373 1.29048 5.35498 0.987353L4.98672 0.856251C4.12632 0.553126 2.89925 0.859684 2.25921 1.53737L0.512686 3.38832C0.20067 3.71695 0.00125321 4.6569 0.00125321 4.66033C-0.0598326 10.5316 2.11445 16.1882 6.03681 20.3414C9.94954 24.4843 15.2719 26.7831 20.8009 26.7337C20.8298 26.7337 21.7433 26.5259 22.0553 26.1973L23.8018 24.348C24.4418 23.6704 24.7313 22.3712 24.4451 21.4602Z" fill="#2F4C78"/>
</svg>
