<svg width="91" height="17" viewBox="0 0 91 17" fill="none" xmlns="http://www.w3.org/2000/svg">
<path d="M8.59375 0.799316C8.96875 0.0493164 10.0312 0.0805664 10.375 0.799316L12.4375 4.95557L17 5.61182C17.8125 5.73682 18.125 6.73682 17.5312 7.33057L14.25 10.5493L15.0312 15.0806C15.1562 15.8931 14.2812 16.5181 13.5625 16.1431L9.5 13.9868L5.40625 16.1431C4.6875 16.5181 3.8125 15.8931 3.9375 15.0806L4.71875 10.5493L1.4375 7.33057C0.84375 6.73682 1.15625 5.73682 1.96875 5.61182L6.5625 4.95557L8.59375 0.799316ZM26.5938 0.799316C26.9688 0.0493164 28.0312 0.0805664 28.375 0.799316L30.4375 4.95557L35 5.61182C35.8125 5.73682 36.125 6.73682 35.5312 7.33057L32.25 10.5493L33.0312 15.0806C33.1562 15.8931 32.2812 16.5181 31.5625 16.1431L27.5 13.9868L23.4062 16.1431C22.6875 16.5181 21.8125 15.8931 21.9375 15.0806L22.7188 10.5493L19.4375 7.33057C18.8438 6.73682 19.1562 5.73682 19.9688 5.61182L24.5625 4.95557L26.5938 0.799316ZM44.5938 0.799316C44.9688 0.0493164 46.0312 0.0805664 46.375 0.799316L48.4375 4.95557L53 5.61182C53.8125 5.73682 54.125 6.73682 53.5312 7.33057L50.25 10.5493L51.0312 15.0806C51.1562 15.8931 50.2812 16.5181 49.5625 16.1431L45.5 13.9868L41.4062 16.1431C40.6875 16.5181 39.8125 15.8931 39.9375 15.0806L40.7188 10.5493L37.4375 7.33057C36.8438 6.73682 37.1562 5.73682 37.9688 5.61182L42.5625 4.95557L44.5938 0.799316ZM62.5938 0.799316C62.9688 0.0493164 64.0312 0.0805664 64.375 0.799316L66.4375 4.95557L71 5.61182C71.8125 5.73682 72.125 6.73682 71.5312 7.33057L68.25 10.5493L69.0312 15.0806C69.1562 15.8931 68.2812 16.5181 67.5625 16.1431L63.5 13.9868L59.4062 16.1431C58.6875 16.5181 57.8125 15.8931 57.9375 15.0806L58.7188 10.5493L55.4375 7.33057C54.8438 6.73682 55.1562 5.73682 55.9688 5.61182L60.5625 4.95557L62.5938 0.799316ZM80.5938 0.799316C80.9688 0.0493164 82.0312 0.0805664 82.375 0.799316L84.4375 4.95557L89 5.61182C89.8125 5.73682 90.125 6.73682 89.5312 7.33057L86.25 10.5493L87.0312 15.0806C87.1562 15.8931 86.2812 16.5181 85.5625 16.1431L81.5 13.9868L77.4062 16.1431C76.6875 16.5181 75.8125 15.8931 75.9375 15.0806L76.7188 10.5493L73.4375 7.33057C72.8438 6.73682 73.1562 5.73682 73.9688 5.61182L78.5625 4.95557L80.5938 0.799316Z" fill="#EFA286"/>
</svg>
