<svg width="106" height="129" viewBox="0 0 106 129" fill="none" xmlns="http://www.w3.org/2000/svg">
<path fill-rule="evenodd" clip-rule="evenodd" d="M43.4099 64.4872C44.204 63.3185 44.8012 61.9451 45.161 60.4778L51.8055 33.0523L40.0028 28.5141C38.4282 27.9084 36.8129 27.5075 35.1704 27.3198L19.7028 25.5199C19.0173 25.4431 18.5082 24.6924 18.549 23.8309C18.5897 23.0205 19.0987 22.3807 19.7435 22.3295L37.8717 20.9134C39.5752 20.777 41.2856 20.8537 42.9755 21.1267L60.2689 23.9247L60.3028 23.8906L70.3477 26.5606L86.3244 24.01L102.606 17.2965C105.545 15.8463 106.679 19.4377 104.568 20.7514L87.77 30.4505L74.1823 36.8057L60.8594 72.685L91.4282 123.476C92.3309 124.977 91.8558 127.144 90.4712 127.843C89.6772 128.244 88.7677 128.056 88.1229 127.348L59.6513 96.195L49.3146 84.7556L24.3315 86.8882C22.2479 87.0674 20.1982 86.1546 18.6644 84.3717L0.923012 63.745C0.128929 62.8237 0.1493 61.2456 0.963745 60.3584C1.52707 59.7442 2.32793 59.6248 2.99306 60.0599L22.8452 73.12L38.7947 68.07C40.5933 67.4984 42.2086 66.2445 43.4099 64.4616V64.4872Z" fill="#FAF9FB" fill-opacity="0.2" stroke="#FAF9FB" stroke-opacity="0.2" stroke-miterlimit="10"/>
<path fill-rule="evenodd" clip-rule="evenodd" d="M55.8506 10.8475C55.8506 16.324 59.3798 20.7684 63.7439 20.7684C68.1079 20.7684 71.6372 16.324 71.6372 10.8475C71.6372 5.3709 68.1012 0.926514 63.7439 0.926514C59.3866 0.926514 55.8506 5.3709 55.8506 10.8475Z" fill="#FAF9FB" fill-opacity="0.2" stroke="#FAF9FB" stroke-opacity="0.2" stroke-miterlimit="10"/>
</svg>
