<svg width="101" height="55" viewBox="0 0 101 55" fill="none" xmlns="http://www.w3.org/2000/svg">
<g clip-path="url(#clip0_24_1806)">
<path d="M3.27197 33.5767C5.37239 32.1703 8.21116 32.736 9.61572 34.8462V34.8472C9.79944 35.1245 9.94716 35.4124 10.063 35.7036V35.7339L10.1606 35.9653C10.482 36.7245 10.876 37.4658 11.3501 38.1782C14.0245 42.1992 18.7786 44.6269 23.3462 44.3198L23.4272 44.314L23.5044 44.2983C23.5055 44.2982 23.5069 44.2985 23.5083 44.2983C23.5138 44.2976 23.52 44.2966 23.5288 44.2954L23.5405 44.2944L23.5522 44.2925C24.1691 44.1978 24.7719 43.891 25.1958 43.4028C25.5057 43.0458 25.7271 42.5728 25.7505 42.0425C25.8362 42.8206 26.0396 43.5932 26.3706 44.3315V44.3325C26.5511 44.7373 26.832 45.027 27.0825 45.2251V45.2261C27.4048 45.4825 27.9532 46.1358 28.2661 46.6069H28.2671C29.673 48.7218 29.1029 51.5781 26.9995 52.9868C24.8984 54.3938 22.0579 53.8274 20.6538 51.7153H20.6548C20.36 51.2715 19.9765 50.5419 19.8647 50.1743L19.8433 50.104L19.813 50.0366L19.5757 49.5259C19.3261 49.0194 19.0407 48.5239 18.7222 48.0425L18.7212 48.0405L18.4673 47.6724C15.7892 43.9223 11.2677 41.6526 6.89795 41.8892L6.80811 41.894L6.72021 41.9116C4.95305 42.2692 3.06727 41.5548 2.00439 39.9565C0.598402 37.8416 1.16837 34.9853 3.27197 33.5767ZM26.8169 19.5522C27.3122 17.0597 29.7254 15.4479 32.1997 15.9429C34.6757 16.4384 36.2907 18.8598 35.7935 21.353C35.7025 21.8094 35.5478 22.2358 35.3423 22.6235L35.3071 22.689L35.2808 22.7593C35.013 23.4561 34.8001 24.185 34.6489 24.9409L34.6479 24.9419C33.709 29.6637 35.4222 34.2982 38.7466 37.2935L38.814 37.354L38.8882 37.4038C40.3912 38.4065 41.2222 40.2539 40.8481 42.1392C40.3528 44.6317 37.9396 46.2436 35.4653 45.7485H35.4644C33.6588 45.3877 32.3097 44.0013 31.9048 42.3052L31.8364 41.9624C31.7672 41.5227 31.5751 40.9819 31.1167 40.5591H31.1157C30.74 40.2088 30.3347 39.9021 29.9067 39.6401C31.0536 39.9864 32.2553 39.2592 32.6118 38.1548V38.1538C32.7591 37.6961 32.8986 37.2045 32.9878 36.7544C33.9393 31.9722 32.1685 27.2782 28.7573 24.2856L28.7104 24.2437L28.6587 24.2075L28.3979 24.0073C27.1655 22.9898 26.5069 21.3591 26.7905 19.6831L26.8169 19.5522ZM23.936 35.1079C24.6896 34.6028 25.6766 34.7156 26.2983 35.3325L26.3003 35.3345C26.3468 35.3804 26.3906 35.4288 26.4321 35.479L26.5493 35.6362C26.6573 35.7998 26.7362 35.9691 26.7886 36.1401L26.8101 36.2104L26.8394 36.2778C27.0144 36.6751 27.2265 37.0623 27.4722 37.4321C27.9395 38.1356 28.5082 38.7408 29.1489 39.2349C28.968 39.1505 28.7844 39.0722 28.5981 39.0024L28.5972 39.0015L28.4673 38.9575C27.1269 38.5485 25.7548 39.5131 25.7065 40.939C25.6995 41.1388 25.7027 41.3392 25.7114 41.5396C25.6977 41.4694 25.6829 41.3979 25.6616 41.3267L25.6606 41.3257C25.4489 40.6183 25.1321 39.9272 24.6987 39.2788C24.4266 38.8696 24.1186 38.4897 23.7808 38.1479L23.5454 37.9097C23.4992 37.8547 23.4556 37.7971 23.4155 37.7368L23.3159 37.5698C22.8971 36.7763 23.0945 35.7928 23.7817 35.2231L23.936 35.1079Z" fill="#F5F7FA" stroke="#F5F7FA" stroke-width="2.47377"/>
<path d="M82.1245 41.167C83.0179 39.0551 85.4471 38.0743 87.5444 38.9697L87.5454 38.9707C89.6446 39.8654 90.6295 42.305 89.7339 44.4189L89.7329 44.4199C88.8395 46.5318 86.4113 47.5126 84.314 46.6172H84.313C82.2133 45.7225 81.2284 43.2822 82.1245 41.168V41.167Z" fill="#F5F7FA" stroke="#F5F7FA" stroke-width="2.47377"/>
<path d="M91.75 18.4595C92.6454 16.3471 95.072 15.3684 97.1699 16.2622L97.2568 16.2993C99.2961 17.2256 100.24 19.6235 99.3584 21.7085C99.1613 22.1729 98.8267 22.652 98.4355 23.0522C98.033 23.4641 97.6551 23.708 97.4268 23.7935L97.3643 23.8159L97.3193 23.8384C97.3126 23.8416 97.3047 23.8452 97.2969 23.8491C97.2597 23.8678 97.1736 23.9133 97.0742 23.9927C96.3112 24.5999 95.6236 25.1153 95.1436 25.6646C94.5822 26.307 94.2924 26.9887 94.1309 27.8999C94.0113 28.5736 94.0692 29.209 94.165 29.7563C94.2535 30.2614 94.4091 30.8494 94.4941 31.2319C94.6518 31.9462 94.6235 32.7057 94.3789 33.4409L94.2607 33.7554C93.3649 35.8669 90.9384 36.8454 88.8408 35.9517H88.8418C86.8072 35.083 85.8204 32.7673 86.5742 30.7007L86.6533 30.5015C87.0026 29.6747 87.586 29.0229 88.291 28.5894C88.619 28.3876 89.1401 28.0944 89.5576 27.811C90.0101 27.504 90.4993 27.1101 90.8965 26.5659L90.8975 26.5649C91.3383 25.9601 91.6317 25.379 91.7637 24.6948C91.8879 24.0504 91.8498 23.3974 91.7861 22.7173C91.7465 22.2921 91.6721 21.8822 91.6064 21.5278C91.572 21.3422 91.5403 21.1718 91.5127 21.0093L91.4443 20.5376C91.3685 19.8541 91.4613 19.1423 91.75 18.4595Z" fill="#F5F7FA" stroke="#F5F7FA" stroke-width="2.47377"/>
<path d="M90.8723 44.9021C89.7133 47.6418 86.5581 48.9202 83.8282 47.7548C81.0984 46.5916 79.8246 43.425 80.9858 40.6853C82.1448 37.9455 85.3 36.6671 88.0299 37.8326C90.7597 38.9958 92.0335 42.1624 90.8723 44.9021Z" fill="#F5F7FA" stroke="#F5F7FA" stroke-width="1.58322"/>
<path d="M97.6551 15.1241C94.9253 13.9609 91.7723 15.2371 90.6111 17.9768C90.2375 18.8599 90.1159 19.7859 90.215 20.6758C90.296 21.3986 90.4873 22.1078 90.5548 22.8328C90.6808 24.179 90.6336 24.8272 89.8976 25.8368C89.3373 26.6048 88.4506 27.0384 87.6427 27.5353C86.7245 28.1 85.966 28.9492 85.5137 30.0198C84.3547 32.7595 85.6262 35.9239 88.3561 37.0893C91.0859 38.2525 94.2389 36.9764 95.4001 34.2367C95.8547 33.1616 95.9357 32.0232 95.7017 30.9639C95.4924 30.0221 95.1796 29.0667 95.3484 28.1158C95.6094 26.6432 96.1923 26.275 97.8441 24.9605C97.8487 24.956 97.8554 24.9537 97.8599 24.9514C98.7714 24.6104 99.9619 23.454 100.497 22.1914C101.656 19.4517 100.385 16.2873 97.6551 15.1219V15.1241Z" fill="#F5F7FA" stroke="#F5F7FA" stroke-width="1.58322"/>
<path d="M37.0811 1.95633C33.7436 3.62546 32.3865 7.69326 34.0496 11.0428C34.7045 12.3596 35.7285 13.3715 36.9325 14.0084C36.9708 14.0287 37.0068 14.0468 37.045 14.0671C40.2858 15.7701 42.6083 19.0158 43.0179 22.8577C43.0494 23.1423 43.0381 23.4359 43.0786 23.725C43.1416 24.1948 43.2857 24.5833 43.4905 24.9944C43.8618 25.7397 44.3682 26.196 45.0591 26.7629C47.6246 29.2745 48.9232 32.9493 48.3133 36.6715C48.0455 38.0787 48.2165 39.5807 48.9029 40.9607C50.566 44.3102 54.6192 45.6722 57.9567 44.0031C61.2941 42.3339 62.6512 38.2661 60.9881 34.9166C60.3129 33.5591 59.2462 32.5269 57.9949 31.8923C56.4556 31.0814 55.166 29.9498 54.1781 28.6172C53.3004 27.4337 53.926 25.8188 55.3236 25.3603C57.4841 24.6511 59.7818 24.24 62.1718 24.179C64.8859 24.109 67.5348 24.5065 70.0351 25.2971C71.4394 25.742 72.0898 27.8041 71.2256 28.999C70.3411 30.2209 69.2024 31.2802 67.8453 32.0888C66.6278 32.7889 65.6151 33.8731 65.012 35.2644C63.5244 38.6953 65.0907 42.6885 68.5092 44.1815C71.9277 45.6745 75.9066 44.1024 77.3942 40.6716C78.0063 39.2577 78.1008 37.7489 77.761 36.3576C76.9598 32.6715 78.0671 28.4817 80.4976 25.8414C81.22 25.1299 81.6409 24.7572 81.9717 23.9938C82.154 23.5737 82.2553 23.2169 82.3183 22.7041C82.352 22.4128 82.3183 22.1214 82.334 21.8346C82.5456 17.9768 84.6993 14.6137 87.8455 12.7458C87.8815 12.7232 87.9175 12.7029 87.9558 12.6826C89.126 11.9824 90.096 10.9208 90.6811 9.57019C92.1687 6.13932 90.6023 2.14606 87.1838 0.653099C83.7653 -0.839859 79.7865 0.732151 78.2989 4.16302C77.6913 5.56337 77.5922 7.05407 77.9208 8.43409C78.5982 11.4087 77.9883 14.3743 76.4647 16.8046C72.5871 20.7482 67.9241 21.3987 62.7952 21.5319C58.2447 21.6494 53.6402 21.3399 49.9944 18.6363C48.8872 17.8165 48.0005 16.7165 47.4581 15.4472C46.6457 13.5454 46.3553 11.4155 46.7334 9.2472C46.99 7.85362 46.8144 6.36744 46.1348 5.00323C44.4717 1.65367 40.4185 0.291717 37.0811 1.96085V1.95633Z" fill="#F5F7FA" stroke="#F5F7FA" stroke-width="1.95428"/>
</g>
<defs>
<clipPath id="clip0_24_1806">
<rect width="101" height="55" fill="white"/>
</clipPath>
</defs>
</svg>
